<?xml version="1.0" standalone="no"?>
<!DOCTYPE svg PUBLIC "-//W3C//DTD SVG 20010904//EN"
 "http://www.w3.org/TR/2001/REC-SVG-20010904/DTD/svg10.dtd">
<svg version="1.0" xmlns="http://www.w3.org/2000/svg"
 width="1024.000000pt" height="1024.000000pt" viewBox="0 0 1024.000000 1024.000000"
 preserveAspectRatio="xMidYMid meet">
<metadata>
Created by potrace 1.14, written by Peter Selinger 2001-2017
</metadata>
<g transform="translate(0.000000,1024.000000) scale(0.100000,-0.100000)"
fill="#000000" stroke="none">
<path d="M0 5120 l0 -5120 5120 0 5120 0 0 5120 0 5120 -5120 0 -5120 0 0
-5120z m1694 4460 l18 -50 37 7 c34 8 69 8 166 2 22 -1 63 1 90 5 78 12 370
-58 446 -107 l57 -36 131 23 132 24 50 -79 c37 -58 57 -79 72 -79 12 0 60 -25
108 -55 62 -39 96 -55 121 -55 19 0 62 -11 96 -25 34 -14 81 -25 105 -25 58 0
153 -26 204 -56 23 -13 77 -36 120 -52 105 -37 200 -91 268 -154 40 -36 75
-58 122 -74 36 -13 73 -29 82 -38 26 -24 140 -74 185 -81 62 -11 281 -171 535
-391 2 -2 -2 -11 -10 -20 -12 -15 -11 -16 16 -11 17 3 64 9 106 12 75 6 76 6
120 -27 39 -30 45 -41 59 -100 15 -67 16 -68 115 -156 163 -144 375 -382 389
-436 4 -18 26 -37 76 -66 l70 -41 0 -112 0 -113 45 -44 c38 -38 45 -50 45 -84
0 -31 6 -45 25 -61 13 -11 40 -47 60 -79 42 -71 45 -119 15 -197 -12 -29 -27
-83 -35 -120 -13 -61 -25 -83 -108 -196 -51 -71 -106 -156 -122 -190 l-28 -62
-96 -41 c-78 -34 -102 -49 -128 -83 -30 -40 -37 -44 -155 -76 -84 -23 -150
-49 -210 -82 -63 -35 -99 -49 -126 -49 -35 0 -42 -5 -66 -40 l-26 -40 -116 0
-116 0 -45 -40 c-56 -49 -137 -80 -228 -87 -57 -5 -73 -3 -84 11 -19 23 -37
20 -94 -15 -49 -30 -51 -30 -125 -20 -61 8 -83 7 -110 -5 -32 -13 -93 -12
-172 2 -23 4 -24 3 -7 -10 18 -14 18 -14 0 -20 -70 -21 -238 -47 -297 -46 -51
1 -107 -7 -196 -30 -101 -26 -151 -33 -260 -36 -75 -3 -163 -12 -197 -21 -60
-15 -64 -15 -116 6 -73 30 -97 22 -179 -56 l-66 -65 -79 17 c-43 10 -100 26
-128 36 -48 17 -52 17 -115 0 l-65 -18 -10 -94 c-17 -155 -45 -211 -186 -374
-176 -204 -148 -188 -218 -127 l-59 52 -91 0 -91 0 0 28 c0 15 9 86 20 157 11
72 20 155 20 186 0 50 -3 57 -30 77 -16 12 -32 22 -35 22 -4 0 -34 -16 -66
-35 -60 -35 -61 -35 -183 -35 l-123 0 -84 58 -84 59 -37 99 c-20 54 -37 102
-37 105 -1 4 45 48 101 98 115 103 219 162 361 206 72 23 87 31 81 44 -17 38
-16 142 0 180 16 34 16 54 4 245 -13 208 -13 208 9 264 18 44 23 75 23 151 0
74 5 106 20 140 11 24 20 47 20 51 0 5 -23 47 -52 95 l-52 87 64 127 63 128
-23 268 c-20 248 -21 282 -9 432 l13 164 -45 107 -44 107 -5 160 c-5 144 -8
165 -30 210 -38 76 -57 78 -182 23 l-103 -46 -176 -12 c-203 -14 -230 -10
-280 48 -62 71 -103 187 -156 444 -20 101 -30 83 91 165 92 62 172 93 281 109
49 7 131 22 180 33 141 32 325 48 372 32 121 -41 121 -41 244 -11 63 15 116
28 120 29 3 1 13 -22 23 -49z m6501 -4007 l50 -60 130 -5 c105 -5 145 -11 204
-32 54 -19 94 -26 148 -26 93 0 211 -24 283 -57 30 -13 103 -42 162 -63 134
-47 188 -78 261 -151 82 -83 110 -148 115 -271 4 -87 2 -102 -21 -151 -32 -70
-89 -125 -169 -165 -61 -29 -179 -64 -263 -77 -40 -6 -40 -5 -75 49 -33 52
-38 56 -130 90 -87 33 -104 36 -199 36 l-104 0 -46 51 -46 51 -72 -10 c-66 -9
-74 -13 -108 -51 -21 -23 -42 -41 -47 -41 -6 0 -55 32 -109 70 -60 43 -108 70
-123 70 -15 0 -69 -7 -122 -15 l-96 -16 -144 33 c-139 31 -147 32 -237 20
-124 -15 -249 -53 -363 -108 l-95 -46 -60 26 c-33 14 -64 26 -69 26 -5 0 -64
-25 -132 -56 -92 -43 -182 -73 -358 -120 -233 -63 -234 -64 -288 -50 l-54 15
-101 -65 c-86 -55 -107 -64 -146 -64 -43 0 -48 -3 -71 -40 -17 -27 -57 -61
-122 -105 -95 -63 -97 -65 -87 -92 18 -49 99 -122 152 -138 26 -8 81 -34 120
-59 95 -59 308 -135 412 -147 74 -9 89 -15 200 -80 119 -70 120 -70 159 -58
34 12 49 10 125 -9 104 -27 200 -71 257 -117 23 -19 45 -35 49 -35 4 0 44 -22
90 -50 46 -27 86 -50 91 -50 4 0 22 13 39 30 l30 29 115 -10 c63 -6 149 -12
190 -15 70 -5 78 -8 135 -53 l60 -48 110 -6 c61 -4 135 -13 165 -22 30 -8 96
-15 145 -15 109 0 190 -26 300 -95 l74 -46 53 14 c48 12 57 12 93 -4 27 -13
65 -19 118 -19 l79 0 128 -89 128 -90 108 -11 c176 -17 164 -12 222 -90 37
-49 74 -84 129 -121 206 -138 306 -233 354 -334 42 -89 56 -157 69 -328 14
-180 7 -217 -57 -326 -52 -87 -207 -248 -296 -307 -39 -26 -95 -63 -124 -82
-28 -18 -71 -39 -95 -47 -24 -7 -77 -31 -118 -53 -77 -41 -165 -72 -208 -72
-13 0 -44 -14 -68 -31 -25 -17 -75 -44 -112 -61 -62 -28 -73 -30 -151 -25
l-85 5 -80 -68 -81 -68 -86 17 c-82 17 -90 17 -215 -1 -82 -13 -183 -20 -279
-20 -135 0 -157 -2 -225 -25 -68 -24 -91 -27 -257 -29 -145 -1 -191 -5 -228
-19 -36 -14 -44 -22 -40 -36 6 -17 0 -19 -72 -19 -43 0 -107 -6 -143 -12 -79
-15 -97 -15 -375 5 -121 9 -317 19 -435 22 -118 4 -255 13 -304 21 -77 12 -97
12 -140 -1 -124 -34 -239 -24 -344 29 -28 14 -57 26 -64 26 -7 0 -48 -13 -91
-29 l-79 -30 -43 40 -43 40 -138 9 c-171 12 -236 25 -294 57 -41 22 -52 24
-126 18 l-81 -7 -174 116 c-164 109 -179 117 -264 136 -117 27 -211 91 -287
194 l-28 39 0 358 0 358 78 87 77 86 110 -5 c101 -6 112 -4 123 13 6 10 32 31
58 46 37 22 63 28 123 32 68 3 82 1 131 -25 102 -52 155 -161 167 -340 l6 -91
-44 -12 c-134 -34 -170 -52 -245 -118 -41 -37 -74 -72 -74 -79 0 -7 15 -20 32
-29 18 -9 62 -45 99 -80 l65 -65 172 10 172 10 152 -46 153 -46 235 5 234 5
85 -55 84 -54 37 21 c42 23 78 26 130 11 27 -8 248 -39 281 -40 3 0 11 -11 17
-25 11 -23 17 -25 75 -25 38 0 96 10 143 24 152 45 174 48 227 32 39 -12 65
-12 147 -3 72 8 124 8 187 0 74 -9 94 -9 123 4 47 21 181 21 240 0 43 -16 49
-15 140 9 91 24 97 28 147 81 l53 56 168 -17 168 -18 125 31 c132 33 238 50
306 51 24 0 57 9 78 21 30 18 46 21 92 16 38 -4 67 -1 94 10 35 13 39 19 39
49 l0 34 91 0 c87 0 93 1 125 30 34 30 117 60 164 60 17 0 49 18 86 48 33 26
83 58 111 70 39 17 58 33 83 72 28 43 31 55 22 74 -17 37 -166 130 -379 237
-108 54 -209 109 -227 122 -22 17 -55 27 -118 36 -48 6 -108 18 -135 27 -26 8
-97 21 -158 29 -131 16 -333 78 -450 138 -89 46 -105 47 -333 32 -92 -6 -116
-5 -130 7 -9 8 -47 23 -83 32 -36 10 -89 28 -118 41 -48 23 -53 23 -92 10 -23
-8 -49 -15 -59 -15 -10 0 -77 29 -149 65 l-132 65 -92 0 c-89 0 -95 2 -147 35
-52 33 -59 34 -147 35 -88 0 -93 1 -109 25 -15 23 -23 25 -89 25 l-72 0 -61
68 -61 69 -112 7 c-174 10 -301 45 -376 102 -18 14 -51 31 -74 39 -58 21 -138
69 -174 104 -219 216 -231 231 -279 347 -30 70 -67 139 -101 185 -30 40 -55
77 -55 83 1 6 11 90 23 187 l23 176 93 109 c52 60 113 127 137 149 24 22 49
55 56 73 12 30 42 49 278 180 l265 146 126 1 125 0 86 43 c87 42 128 52 128
30 0 -7 19 7 43 30 26 25 52 42 66 42 13 0 64 14 112 30 155 54 261 73 404 75
l130 2 65 39 64 39 171 7 c93 3 250 16 347 27 98 12 206 21 240 21 58 0 72 5
183 65 66 35 125 63 130 61 6 -1 33 -30 60 -63z"/>
<path d="M2096 8816 c-9 -20 -23 -52 -32 -72 -8 -20 -24 -38 -35 -41 -10 -3
-19 -8 -19 -11 0 -3 20 -50 46 -104 l45 -100 -26 -34 -26 -34 35 -101 c37
-104 46 -181 27 -245 -7 -25 -1 -53 30 -144 22 -62 37 -116 33 -119 -3 -3 -19
-11 -36 -16 l-31 -11 2 -178 c2 -132 -2 -204 -15 -278 l-18 -101 31 -26 31
-26 -50 -135 -49 -135 12 -103 13 -103 -37 -75 c-20 -41 -37 -80 -37 -86 0 -7
16 -39 36 -71 l37 -59 -7 -92 c-6 -81 -4 -100 14 -146 l21 -54 -26 -62 c-34
-81 -31 -100 15 -96 87 7 333 45 411 62 109 25 279 27 364 4 104 -27 225 -5
405 76 83 37 89 38 265 49 123 8 197 8 232 2 60 -12 135 -1 161 22 9 9 49 23
87 33 39 10 98 33 131 51 34 18 93 40 131 48 61 13 77 13 126 0 37 -10 65 -12
84 -6 15 5 40 12 55 15 18 4 41 27 73 71 25 36 48 65 51 65 3 0 35 -7 71 -17
79 -20 107 -12 197 53 37 27 71 44 88 44 19 0 64 27 147 88 138 101 137 99
114 245 l-14 88 -137 173 -137 174 -48 3 -49 4 -50 121 -49 120 -101 50 c-145
71 -174 94 -183 144 -12 72 -37 90 -191 136 l-139 41 -42 73 -41 73 -319 175
-318 175 -100 1 c-91 1 -106 4 -168 33 -59 28 -71 38 -84 73 l-16 40 -84 0
c-67 0 -91 4 -111 19 -37 25 -115 41 -192 39 -80 -2 -108 7 -120 37 -5 14 -33
40 -62 59 -46 30 -64 35 -140 41 -68 6 -91 12 -105 27 -24 26 -80 55 -125 63
-35 7 -38 5 -52 -29z"/>
</g>
</svg>
